<svg xmlns="http://www.w3.org/2000/svg" viewBox="0 0 150.28 30.92"><defs><style>.cls-1{fill:#e9753d;}</style></defs><g id="Layer_2" data-name="Layer 2"><g id="Layer_1-2" data-name="Layer 1"><circle class="cls-1" cx="15.46" cy="15.46" r="15.46"/><path class="cls-1" d="M48.23,16.13H42.69v4H41.51V11.45h1.18v3.72h5.54V11.45h1.18v8.64H48.23Z"/><path class="cls-1" d="M54.57,11.45h6.21v1h-5V15.2h4.93v1H55.75v3h5v.95H54.57Z"/><path class="cls-1" d="M71.57,18.18H66.76l-.84,1.91H64.61l3.81-8.64h1.47l3.82,8.64h-1.3Zm-4.47-1h4.11l-2-4.81Z"/><path class="cls-1" d="M77.89,11.45h3.24c2.94,0,4.86,1.88,4.86,4.33s-1.92,4.31-4.86,4.31H77.89Zm3.24,7.69a3.38,3.38,0,1,0,0-6.73H79.07v6.73Z"/><path class="cls-1" d="M90.91,18.06a4.13,4.13,0,0,0,3,1.23c1.69,0,2.23-.83,2.23-1.49,0-1-1.15-1.32-2.4-1.63-1.52-.36-3.21-.75-3.21-2.45,0-1.42,1.39-2.4,3.25-2.4a4.66,4.66,0,0,1,3.37,1.21l-.71.79a3.81,3.81,0,0,0-2.74-1c-1.14,0-2,.56-2,1.38s1.1,1.12,2.3,1.42c1.55.38,3.32.82,3.32,2.63,0,1.26-.94,2.54-3.5,2.54a4.93,4.93,0,0,1-3.64-1.37Z"/><path class="cls-1" d="M102.05,11.45h3.81a2.63,2.63,0,1,1,0,5.21h-2.63v3.43h-1.18Zm3.67,1h-2.49V15.7h2.49a1.66,1.66,0,1,0,0-3.29Z"/><path class="cls-1" d="M118.21,18.18H113.4l-.84,1.91h-1.31l3.81-8.64h1.47l3.82,8.64h-1.3Zm-4.47-1h4.11l-2-4.81Z"/><path class="cls-1" d="M123.62,15.78a4.53,4.53,0,0,1,4.83-4.47A4.39,4.39,0,0,1,132.09,13l-1,.51a3.31,3.31,0,0,0-2.65-1.26,3.51,3.51,0,1,0,0,7A3.28,3.28,0,0,0,131.1,18l1,.51a4.48,4.48,0,0,1-3.66,1.71A4.53,4.53,0,0,1,123.62,15.78Z"/><path class="cls-1" d="M136.55,11.45h6.21v1h-5V15.2h4.93v1h-4.93v3h5v.95h-6.21Z"/><path class="cls-1" d="M146.76,12.27a1.77,1.77,0,0,1,3.52,0,1.77,1.77,0,0,1-3.52,0Zm.23,0a1.53,1.53,0,0,0,3,0,1.53,1.53,0,0,0-3,0Zm1.49.2h-.37v.72h-.27V11.36h.83a.59.59,0,0,1,.64.56.57.57,0,0,1-.52.54l.54.73H149Zm-.37-.9v.68h.56a.34.34,0,1,0,0-.68Z"/></g></g></svg>